<?xml version="1.0" encoding="UTF-8"?>
<svg width="75px" height="75px" viewBox="0 0 75 75" version="1.1" xmlns="http://www.w3.org/2000/svg" xmlns:xlink="http://www.w3.org/1999/xlink">
    <!-- Generator: Sketch 52.4 (67378) - http://www.bohemiancoding.com/sketch -->
    <title>cultivate-logo</title>
    <desc>Created with Sketch.</desc>
    <defs>
        <filter x="-17.9%" y="-17.9%" width="135.8%" height="135.8%" filterUnits="objectBoundingBox" id="filter-1">
            <feOffset dx="0" dy="2" in="SourceAlpha" result="shadowOffsetOuter1"></feOffset>
            <feGaussianBlur stdDeviation="2" in="shadowOffsetOuter1" result="shadowBlurOuter1"></feGaussianBlur>
            <feColorMatrix values="0 0 0 0 0   0 0 0 0 0   0 0 0 0 0  0 0 0 0.5 0" type="matrix" in="shadowBlurOuter1" result="shadowMatrixOuter1"></feColorMatrix>
            <feMerge>
                <feMergeNode in="shadowMatrixOuter1"></feMergeNode>
                <feMergeNode in="SourceGraphic"></feMergeNode>
            </feMerge>
        </filter>
    </defs>
    <g id="Index" stroke="none" stroke-width="1" fill="none" fill-rule="evenodd">
        <g id="Welcome" transform="translate(-729.000000, -2133.000000)">
            <g id="cultivate-logo" filter="url(#filter-1)" transform="translate(733.000000, 2135.000000)">
                <circle id="Oval" fill="#F9F3F3" cx="33.5" cy="33.5" r="33.5"></circle>
                <path d="M38.1162981,59.6917254 C41.1501371,59.2440681 43.7794644,58.3736235 46.7374574,56.8565628 C49.6196046,55.3892417 50.6814482,54.4441875 50.6814482,53.3499142 C50.6814482,52.3799902 50.0746804,51.6090249 49.2909387,51.6090249 C49.0128368,51.6090249 48.203813,51.9572028 47.4959172,52.3799902 C45.0941279,53.8970508 42.2878268,55.1405433 39.8607555,55.7622894 C36.8269165,56.5581246 31.9474919,56.657604 29.0400628,56.0109879 C24.7168421,55.0410639 20.8739793,53.0266062 17.7895762,50.116834 C15.488915,47.9531572 15.160249,47.2319317 16.1462467,46.2868775 C17.1575264,45.2920835 17.7390122,45.4661725 19.7868536,47.3562809 C24.2112023,51.4598058 29.4445747,53.3747841 35.208869,53.0266062 C40.4169594,52.6784283 44.5379241,50.8380596 48.304941,47.182192 C50.5803203,44.9439057 51.3387801,43.0289273 50.6814482,41.0144697 C49.9229885,38.7264437 48.0268391,37.3337322 45.6250498,37.3337322 C43.8805923,37.3337322 43.0968505,37.7316498 41.1248551,39.6714979 C40.1894214,40.5668124 38.9506038,41.462127 38.0910161,41.8600445 C36.8016345,42.4569209 36.3718406,42.5315304 33.8689233,42.5315304 C31.1890322,42.5315304 31.0373402,42.5066606 29.4951387,41.6859556 C27.4978613,40.6165521 25.5764299,38.5523548 24.8685341,36.6871162 C24.4640222,35.5928428 24.3628942,34.8964871 24.4387402,33.1804676 C24.5145862,31.2903592 24.6157142,30.8178321 25.4247379,29.3256412 C27.7759632,24.8490686 33.3885655,23.0086999 38.0657341,25.1723766 C39.1275778,25.6697736 40.2652674,26.4904785 41.3271111,27.5350122 C43.0462865,29.2261618 44.0828482,29.7235588 45.8778697,29.7235588 C47.8498651,29.698689 50.1252444,27.9826695 50.6561662,26.0676911 C51.2882161,23.8542747 50.7067302,22.2626044 48.355505,19.8502292 C44.0828482,15.473136 37.5600942,13.2348497 31.5176981,14.0555547 C26.5624276,14.7270405 22.8459747,16.617149 18.9019839,20.4719754 C17.9159862,21.4418995 17.0058345,21.4916392 16.1715287,20.6460643 C15.185531,19.7010101 15.362505,19.1538735 17.2586544,17.3135047 C20.1155195,14.5032119 23.3768965,12.5882336 27.3461693,11.3944809 C29.3687287,10.7976046 30.9171992,10.445 33.8689233,10.445 C36.8206475,10.445 38.2174261,10.7727347 40.0124475,11.2701317 C42.5659287,11.9416176 44.967718,12.9861512 47.0408413,14.3042531 C48.7094528,15.3736566 49.4931946,15.5228756 50.2263724,14.8762597 C50.6814482,14.4783421 50.8331402,13.4586783 50.5297563,12.687713 C50.1758084,11.8172683 45.7008957,9.35515341 42.5912107,8.3603595 C38.6725019,7.06712741 33.2368736,6.64434 29.4445747,7.31582589 C27.4978613,7.66400376 23.4021785,8.932366 21.986387,9.62872174 C19.9891096,10.6235156 16.8794245,12.7623226 15.210813,14.2793833 C13.3399456,16.0202726 12,18.2834288 12,19.7507498 C12,21.8895567 14.1995333,24.3019319 16.4243487,24.6501098 C18.3710621,24.9236782 19.7110076,24.3765415 21.733567,22.5113029 C24.8685341,19.6264006 27.1186314,18.3829082 30.5317004,17.6865524 C36.4224046,16.4927997 42.7429027,18.5072574 46.2570996,22.7102617 C47.4706352,24.1527129 47.5717632,24.4511511 47.1166873,25.3215957 C46.3582276,26.7391771 45.4480758,26.5650881 43.4002345,24.6749796 C42.4648007,23.804535 41.1501371,22.7848713 40.4675233,22.3869537 C36.1443027,19.8999689 29.8238046,20.3227563 26.0315058,23.3817476 C24.2364843,24.8241988 23.9583824,25.0977671 22.8965387,26.589958 C21.0003893,29.2510317 20.3177755,32.6084611 20.9751073,35.8415414 C21.5313111,38.4528754 22.6437188,40.4424632 24.6409962,42.4071812 C29.8743685,47.5055 38.1921441,47.4806301 43.2991065,42.3823113 C45.0688459,40.6165521 45.8525877,40.3678536 46.7374574,41.2631681 C47.6223272,42.108743 47.5717632,42.6558796 46.4340736,44.073461 C43.5519264,47.6298492 39.1528598,49.5945672 33.9700513,49.619437 C29.5457027,49.619437 25.8545318,48.1769859 22.4920268,45.1179946 C19.9638276,42.8050988 19.1042398,42.3325716 17.4356284,42.3077018 C14.5029172,42.2579621 12.1011279,44.570858 12.1516919,47.3562809 C12.1516919,49.1966496 12.6573318,50.0919641 15.0085571,52.3799902 C21.0256713,58.2741441 29.5204207,60.9600876 38.1162981,59.6917254 Z" id="Path" fill="#7BACBF"></path>
            </g>
        </g>
    </g>
</svg>