<?xml version="1.0" encoding="UTF-8"?>
<svg width="24px" height="24px" viewBox="0 0 24 24" version="1.1" xmlns="http://www.w3.org/2000/svg" xmlns:xlink="http://www.w3.org/1999/xlink">
    <!-- Generator: Sketch 52.4 (67378) - http://www.bohemiancoding.com/sketch -->
    <title>logo</title>
    <desc>Created with Sketch.</desc>
    <g id="logo" stroke="none" stroke-width="1" fill="none" fill-rule="evenodd">
        <g id="Group" fill="#1B5FAA">
            <path d="M11.8511298,21.0031342 C6.86401338,21.0031342 2.82157714,16.960698 2.82157714,11.9735816 C2.82157714,6.98646523 6.86401338,2.94402899 11.8511298,2.94402899 C16.8382461,2.94402899 20.8806824,6.98646523 20.8806824,11.9735816 C20.8806824,16.960698 16.8382461,21.0031342 11.8511298,21.0031342 M11.8511298,0.122030383 C5.30520084,0.122030383 0.000180627177,5.42825477 0.000180627177,11.9735816 C0.000180627177,18.5195105 5.30520084,23.8251328 11.8511298,23.8251328 C18.3964566,23.8251328 23.702681,18.5195105 23.702681,11.9735816 C23.702681,5.42825477 18.3964566,0.122030383 11.8511298,0.122030383" id="Fill-1"></path>
            <path d="M16.9953316,8.9116499 C16.9194682,8.77858787 16.7779769,8.69790774 16.6256479,8.69790774 L7.07769533,8.69790774 C6.88623052,8.69790774 6.71824725,8.82555094 6.66586537,9.00918857 C6.61408557,9.19403038 6.69175526,9.38970983 6.85431972,9.49025895 L11.422381,12.2869698 L11.422381,17.392698 C11.422381,17.5877753 11.5536368,17.7557586 11.7390807,17.8063342 C11.7770124,17.8165698 11.814342,17.8219886 11.8516716,17.8219886 C12.0015922,17.8219886 12.1442877,17.7425126 12.2219574,17.6070422 L16.9953316,9.33973631 C17.0717971,9.20727638 17.0717971,9.04471192 16.9953316,8.9116499" id="Fill-4"></path>
        </g>
    </g>
</svg>