<?xml version="1.0" encoding="UTF-8"?>
<svg width="67px" height="67px" viewBox="0 0 67 67" version="1.1" xmlns="http://www.w3.org/2000/svg" xmlns:xlink="http://www.w3.org/1999/xlink">
    <!-- Generator: Sketch 53.2 (72643) - https://sketchapp.com -->
    <title>pikl-fav-icon</title>
    <desc>Created with Sketch.</desc>
    <g id="Index" stroke="none" stroke-width="1" fill="none" fill-rule="evenodd">
        <g id="Welcome" transform="translate(-1201.000000, -2069.000000)">
            <g id="pikl-fav-icon" transform="translate(1201.000000, 2069.000000)">
                <circle id="Oval" fill="#F5F5F5" cx="33.5" cy="33.5" r="33.5"></circle>
                <g transform="translate(9.000000, 9.000000)" fill-rule="nonzero">
                    <path d="M30,15.13 C26.39,15.13 26.16,17.02 21.84,17.02 C18,17 17.57,15.07 14,15.07 C10.43,15.07 7.73,18.07 6,18.18 C7.42,16.28 10.19,12 10.19,12 L40.48,12 L44.62,18.17 C36.74,18.76 35.92,15.13 30,15.13 Z" id="Path" fill="#FFFFFF"></path>
                    <rect id="Rectangle" fill="#FFFFFF" x="9.08" y="3.48" width="32.66" height="5.01" rx="1.14"></rect>
                    <polygon id="Path" fill="#FFFFFF" points="35.71 32.47 35.71 44.58 22.99 44.58 22.99 37.77 18.77 37.77 18.77 44.58 15.1 44.58 15.1 32.48 11.93 32.49 25.36 19.51 38.95 32.48"></polygon>
                    <path d="M44,10.84 C44.7707773,10.095046 45.2102997,9.07189547 45.22,8 L45.22,4 C45.22,1.790861 43.429139,1.3527075e-16 41.22,0 L9.62,0 C7.410861,-1.3527075e-16 5.62,1.790861 5.62,4 L5.62,8 C5.61901122,9.08085453 6.05547532,10.1161041 6.83,10.87 L1.29,19 C0.939752988,19.509766 0.901952883,20.1719797 1.19191755,20.7182899 C1.48188221,21.2646002 2.05152204,21.6044034 2.67,21.6 L5.56,21.6 L5.56,41.28 C5.55999805,43.0905104 6.27990426,44.8267213 7.56106599,46.1060072 C8.84222772,47.3852932 10.5794915,48.1026547 12.39,48.1 L38.39,48.05 C40.1961249,48.0473498 41.9272226,47.3273268 43.2024704,46.0483283 C44.4777182,44.7693297 45.1926541,43.0361249 45.19,41.23 L45.19,21.65 L48.08,21.65 C48.695081,21.6518444 49.2607631,21.3134336 49.5499967,20.7705967 C49.8392303,20.2277598 49.8045979,19.5694902 49.46,19.06 L44,10.84 Z M9.08,4.61 C9.08548877,3.98430412 9.59428004,3.47997593 10.22,3.48 L40.6,3.48 C41.22572,3.47997593 41.7345112,3.98430412 41.74,4.61 L41.74,7.35 C41.74,7.97960461 41.2296046,8.49 40.6,8.49 L10.22,8.49 C9.5926591,8.48456817 9.08543183,7.9773409 9.08,7.35 L9.08,4.61 Z M35.71,32.47 L35.71,44.58 L23,44.58 L23,37.77 L18.77,37.77 L18.77,44.58 L15.1,44.58 L15.1,32.49 L11.93,32.49 L25.36,19.49 L39,32.48 L35.71,32.47 Z M30,15.13 C26.39,15.13 26.16,17.02 21.84,17.02 C18,17 17.57,15.07 14,15.07 C10.43,15.07 7.73,18.07 6,18.18 C7.42,16.28 10.19,12 10.19,12 L40.48,12 L44.62,18.17 C36.74,18.76 35.92,15.13 30,15.13 Z" id="Shape" fill="#ED2079"></path>
                    <path d="M24.18,34.92 C24.18,36.32 25.79,38.1 28.65,39.69 C31.39,38.35 33.12,36.32 33.12,34.92 C33.1225398,33.8547434 32.4575483,32.9020117 31.4567515,32.5370679 C30.4559548,32.1721241 29.3337737,32.4731576 28.65,33.29 C27.9662263,32.4731576 26.8440452,32.1721241 25.8432485,32.5370679 C24.8424517,32.9020117 24.1774602,33.8547434 24.18,34.92 L24.18,34.92 Z" id="Path" fill="#ED2079"></path>
                </g>
            </g>
        </g>
    </g>
</svg>