<svg xmlns="http://www.w3.org/2000/svg" viewBox="0 0 633.41 287.71"><title>signature</title><g id="Layer_2" data-name="Layer 2"><g id="signature"><path d="M100.25,52.58c-1.44,0-2.7-.33-3.69.05C78.06,59.7,59.23,66.07,41.28,74.35c-8.83,4.08-16.43,11.26-23.83,17.89-5.58,5-4.29,13.22,2.12,17.25,14.8,9.31,30.68,16.17,47.95,19.36,2.9.54,6,.08,8.81.08a10,10,0,0,0,.35-2.37c-.67-2.3-1.4-4.59-2.12-6.88,2.63,0,5.43-.47,7.85.27,5,1.53,8.83,4.7,8.33,10.62s-5.16,8-9.88,8.44c-9.23.94-18.37.91-27.31-3.18-9.43-4.3-19.5-7.2-29.09-11.19a42.33,42.33,0,0,1-23-21.86c-2.27-5-2-10.71,1.69-15.1s7.77-9.32,12.72-12.12c14.12-8,28.5-15.62,43.31-22.2,11.17-5,23.22-7.89,34.69-12.24,1.61-.62,2.69-4.11,3-6.4a34.7,34.7,0,0,0-.49-9.47C94,10.32,105.68,3.23,116.78.87c7.51-1.6,15.78-.67,23.57.28,8,1,12.15,11.16,7.06,17.45a88.07,88.07,0,0,1-15.59,14.65c-5.76,4.33-12.44,7.41-18.48,11.4a6.11,6.11,0,0,0-2.12,4.92c.67,5,2.15,9.9,3,14.89,1,6,1.58,12.16,2.67,18.19.46,2.57,1.79,5,2.72,7.48l1.87.16c1.26-3.55,3-7,3.64-10.65.87-4.91,3.73-7.32,8.19-8.09,11.88-2,23.26-1.88,32,8.28a3.63,3.63,0,0,0,1.54.85,10.15,10.15,0,0,0,2.3-.1c-.29-3.58-.82-7.16-.78-10.73,0-2.33.87-4.65,1.35-7,2.59.81,6.17.84,7.55,2.6a26.46,26.46,0,0,1,4.85,10.88c1,5.2,1,10.62,1.27,16,.16,3,.83,5.22,4.47,4.57,3.09-.56,7.09.36,7.43-4.76.52-7.66,1.42-15.29,1.81-23,.22-4.26,1-7.6,6.17-7.44,4.4.13,7,3.55,6.47,8.85-.68,6.24-2.28,12.42-2.49,18.66-.4,11.75-.23,23.53,0,35.29.06,2.86,2.16,5.79,1.82,8.51-.38,3-2.48,5.81-3.82,8.7-2.13-1.44-5.51-2.47-6.15-4.4-1.82-5.5-2.59-11.36-3.66-17.1-.25-1.35,0-2.78-.1-4.16-.29-3.32-.9-6.61-5.27-6.41-4.1.18-4.47,3.3-4.36,6.45.21,5.74.45,11.49.84,17.22.26,3.87.9,8-4.33,8.82-3.57.58-8.25-4.62-8.45-8.84-.05-1-.11-1.94-.23-4.22-14.36,11.19-28.87,14.88-44.93,3,.13,2.48.08,4.54.35,6.55,4.31,31.81,7.05,63.72,6.11,95.84A87,87,0,0,1,125,273.58c-8.19,15.08-28.11,17.08-41.6,10.77-9.88-4.62-14.46-12.91-18.82-21.71-1.17-2.36-1.19-5.32-1.55-8-1.16-8.76-3.87-17.69-3-26.26,1.67-16.57,2.75-33.65,9.58-49.08,8.69-19.66,18.77-38.72,35.64-53,.45-.39.86-.82,1.34-1.16,7.61-5.23,7.15-5.11,5-13.62-2.48-9.7-4.11-19.62-6-29.46S102,62.47,100.25,52.58ZM116,135.5c-9.73,4.88-15.29,12.78-20,21.21a191.87,191.87,0,0,0-11.66,23.74C80.24,191,76.22,201.76,74,212.8c-1.79,8.81-1.35,18.18-1,27.26.4,10.54,2.94,20.61,9.25,29.48,6.6,9.26,21.25,11.16,27.66,2.68,4.1-5.43,8.11-11.73,9.55-18.21a201.67,201.67,0,0,0,4.32-35.26,179.81,179.81,0,0,0-2.9-39.41c-2.43-13.3-2.91-27-4.25-40.45C116.5,137.93,116.27,137,116,135.5ZM155.81,84c-2.35,1.93-4,3.88-6.05,4.78-1.38.6-3.49,0-5.12-.57a20.48,20.48,0,0,1-4.07-2.47c-.81,1.67-2.29,3.34-2.29,5,0,4.51-.7,8.34-4.09,11.82a10,10,0,0,0-2.56,7.53c1,5.91,2,12.05,8.57,15.19,7.09,3.38,13.14.53,18.63-3.05C171.76,113.82,170.29,90.88,155.81,84ZM135.13,14.71c-.25-.74-.49-1.48-.74-2.23-1.88-.6-3.94-2-5.62-1.66-4.64,1-10,1.62-13.44,4.43-3.68,3-6.17,8.13-7.83,12.81-1.1,3.1.77,6.18,5,3.14C120.06,25.73,127.58,20.21,135.13,14.71Z"/><path d="M404.13,171.62c9.13,1.95,17.41,3,25.24,5.55,10,3.19,13.88,8.39,6.43,17-1.26,1.45-3.59,3.08-5.15,2.84s-4-2.56-4.11-4.16c-.48-5-3.36-5.51-7.54-6.27-30.67-5.58-61.6-3.11-92.44-3.47-4.84-.06-7.64-1.41-7.64-6.61,0-3.52,1.29-5.16,5.16-5.71,13.42-1.89,26.76-4.31,40.15-6.44,3.52-.56,7.09-.72,10.63-1.17,17.23-2.21,34.46-4.41,51.67-6.77a10.58,10.58,0,0,0,5.7-3.24c-14.35,0-28.7-.19-43.05,0-21,.34-42,.6-63,1.58-20.55,1-41,2.84-61.58,4.19-22.66,1.48-45.34,2.74-68,4.25-8.42.56-16.8,1.64-25.22,2.31-4,.31-8.2,1-11.86,0-2.32-.67-4.82-4-5.43-6.6-1.05-4.45,2.25-6.38,6.38-6.46,9.31-.18,18.64.1,27.92-.42,18.15-1,36.26-2.56,54.41-3.67,11.47-.7,23-.72,34.45-1.55,12.39-.9,24.75-2.39,37.75-3.69-3.83-2.69-7.32-5.51-11.15-7.74-8.51-5-11.67-13.07-12.89-22.06-3.33-24.65,8.62-41,29.24-52.35.3-.17.42-.64.53-.8-2.22-4-4.25-7.91-6.57-11.68-4.74-7.72-4.08-16,2.69-22.51,13.35-12.81,29-19.26,47.79-15.86,8.7,1.57,20.24,13.24,21.08,21.67.13,1.3-.7,3.51-1.71,4-5,2.35-10.14,4.8-15.5,6-1.65.36-5.84-3.17-5.86-5,0-2.36,2.63-5,4.66-7,1.2-1.18,3.42-1.31,5.35-2-5.77-7.47-13.1-10.17-22.26-6.43-8,3.29-15.62,8-22.81,12.9-5.46,3.75-5.73,11.39-1.12,16.17,3.85,4,8.24,6.87,14.55,6.34,6.53-.55,13.8-2.11,19,3.63A10.27,10.27,0,0,1,362.33,68c-.22,1.34-4,3-6.17,2.92-5.67-.14-11.31-1.48-17-1.65-3-.09-6.13.95-9,2-16.06,6.12-26.39,17.1-28.57,34.67-2.11,16.89,13.23,32.6,33.29,25.77,9.88-3.36,19-7.77,24.75-16.63a77.59,77.59,0,0,0,9.2-19.38c1.81-6,3.44-12.55-.51-18.74-.6-.94-.08-2.6-.08-3.93l1.59-1.22c2.52,2.52,6,4.61,7.39,7.66,3.16,7,4.5,13.84,2.28,22.18a57.25,57.25,0,0,1-16.5,28c-4.3,4-10,6.54-15.08,9.67A41.83,41.83,0,0,1,344,141.3l.19,1.54c2,.13,3.95.41,5.92.37,14.86-.3,29.73-.78,44.6-1,15.6-.2,31.22.08,46.83-.25,13.29-.28,26.57-1.73,39.84-1.61,30.77.27,61.54,1.55,92.31,1.64,13.38,0,26.77-1.91,40.17-2.83,2.13-.14,5.13-.42,6.3.78,2.21,2.26,4.34,5.41,4.75,8.43.5,3.62-3.11,3.8-6,3.86-19.81.46-39.64.46-59.42,1.53-25.65,1.38-51.31,3.1-76.87,5.67-22.78,2.29-45.43,5.88-68.11,9.07C411.28,169,408.18,170.39,404.13,171.62Z"/><path d="M573.45,112.93c4,2.12,6.48,1.54,8.3-2.92,5.15-12.65,9.79-25.33,8.89-39.37-.09-1.5,2.64-4.63,3.07-4.47,2.33.91,5.4,2.17,6.22,4.15,1.32,3.15,1,7,1.5,10.49,1.11,8.53,1.77,17.17,3.68,25.52.63,2.78,4.23,6.31,6.93,6.74,2.05.34,5.85-3.2,7.05-5.85,4.37-9.64,7.16-19.67,2.69-30.26a14.06,14.06,0,0,1-1.39-6.32c.2-2.28,1.51-4.46,2.34-6.68,2.2,1.42,5.76,2.39,6.4,4.32,5.1,15.54,6.86,31-1.68,46.27-3.37,6-7.14,10.51-14.49,9.86-8.05-.72-12.76-6.08-16.29-12.76-.35-.65-.8-1.24-1.8-2.77-2.12,4.47-3.61,8.36-5.71,11.89-5.43,9.14-9.35,9.89-16.63,2.35-4.07-4.22-6.19-4-10.45-.08C553.2,131.1,542,130,533.5,121c-2.68-2.84-4.59-1.23-6.34.85-2.27,2.71-4.18,5.71-6.5,8.38-5.43,6.25-12.74,5.9-19,.14-5.32-4.86-7.64-10.85-8.49-17.58a12.49,12.49,0,0,1,1.22-6.86c.84-1.63,3-2.58,4.58-3.83.76,1.69,2.12,3.37,2.18,5.09.24,6.41,1.91,12,7.38,16.35,5.49-3,9.85-6.37,11.86-12.89,2.86-9.31,1.15-9.63-6.93-13.74-7.33-3.72-15.06-6.72-22.12-10.88-3.54-2.08-6.58-5.67-8.78-9.23-2.8-4.53-.7-8.07,4.35-10,11-4.1,21.9-5.25,32.6.55A22.1,22.1,0,0,1,527,73.66c1.37,2,2.27,5.88,1.21,7.49a11,11,0,0,1-7.66,4.29c-1.66.08-3.53-3.43-5.23-5.38-1.06-1.23-1.91-3.6-3-3.68-5-.4-10-.18-15-.18l-.36,1.5c5.36,2.86,10.64,5.89,16.11,8.54a92.81,92.81,0,0,0,13.08,5.26c1.73.52,5.06.15,5.73-1a71,71,0,0,0,7.26-15.09c2.09-6.71,3.78-8.63,10.66-8.77,8.3-.17,14.6,2.92,19.48,10,5.33,7.73,9.27,15.67,7.83,25.23C576.52,105.61,574.73,109.15,573.45,112.93Zm-18.37-35.8c2.73,8.09,2.71,8-4.27,9.72A8.07,8.07,0,0,0,547.45,89c-6.11,5.79-8.36,13-8,21.31.18,4.1,2.36,5.55,6,5.7,12,.46,25.78-12.29,21.21-26.61C565.05,84.27,562.3,79.15,555.08,77.13Z"/><path d="M229.27,112.2c0,3.75-.07,7.1,0,10.44s1.51,7.51-4.15,8c-4.72.39-8.63-2.66-8.83-7.52-.4-9.48-.55-19-.68-28.46-.09-6.31-.22-12.64.21-18.92.11-1.66,2.08-4.34,3.46-4.51,2.17-.28,5.62.46,6.65,2a72,72,0,0,1,7.4,14.63c2.51,6.81,3.78,14.08,6.48,20.79a66.11,66.11,0,0,0,8.41,14.12c1.91,2.59,4.56,1.74,4.93-1.54.79-6.9,3.43-13.22,2.73-20.78A68,68,0,0,0,250,78.05c-1.12-2.49-.33-8.15,1.43-9.17,3.84-2.22,6.36.93,8.32,4.84a72.54,72.54,0,0,1,7.75,39.41c-.56,6.32-2.69,12.65-5.11,18.56-.86,2.1-4.56,3.54-7.24,4.3-5,1.42-13.18-2.77-15.84-7.29-1.58-2.69-3.57-5.14-5.21-7.8S231.09,115.47,229.27,112.2Z"/><path d="M394.6,116.22c4.06-.54,7.66-.91,11.21-1.54,1.72-.31,3.5-1.83,5-1.53,2.71.54,6,1.42,7.51,3.37.88,1.18-.63,5.25-2.22,6.94-3.84,4.1-18.82,5.91-23.7,3.46-8.94-4.5-11.1-12.76-8.61-24,2-8.87,1.61-18.25,2.48-27.38.23-2.51,1.18-5,1.8-7.43,2.45,1.26,5.82,1.91,7.13,3.91,1.69,2.58,2.34,6.25,2.35,9.44,0,5.72-.79,11.43-1.3,17.14C395.77,104.1,395.23,109.56,394.6,116.22Z"/><path d="M434.14,118.34c3.75-2.72,6.81-4.66,9.53-7,3.05-2.61,9-3.48,10.74-1,2.9,4,1.53,7.3-2.08,10l-7.94,6.1c-6.39,4.88-14.42,3.92-18.33-3-2.63-4.62-4.39-9.72-3.87-15.51.91-10.2,1.2-20.47,1.55-30.71.12-3.58-.72-8.19,4.14-8.24,4.38-.05,6.73,3.73,6.65,8.27-.21,11.69-.54,23.37-.78,35.06C433.72,113.89,433.94,115.41,434.14,118.34Z"/><path d="M458.17,94.57c1.23-7.78,1.77-13.45,3.19-18.89.42-1.6,3.89-4,4.95-3.52,2.16.9,3.86,3.3,5.29,5.4.66,1,.47,2.73.26,4.07-1.86,12.26.23,24.53-.13,36.78-.06,2.27-1.28,5.57-3,6.48-3.26,1.75-5.75-.62-6.34-4C460.74,111.51,459.36,102.07,458.17,94.57Z"/></g></g></svg>